<?xml version="1.0" encoding="iso-8859-1"?>
<!-- Generator: Adobe Illustrator 19.0.0, SVG Export Plug-In . SVG Version: 6.00 Build 0)  -->
<svg version="1.1" id="Layer_1" xmlns="http://www.w3.org/2000/svg" xmlns:xlink="http://www.w3.org/1999/xlink" x="0px" y="0px"
	 viewBox="0 0 512 512" style="enable-background:new 0 0 512 512;" xml:space="preserve">
<g>
	<g>
		<g>
			<path d="M234.667,213.333c116.604,0,234.667-25.646,234.667-74.667V64c0-43.969-121.646-64-234.667-64S0,20.031,0,64v74.667
				C0,187.688,118.063,213.333,234.667,213.333z M234.667,21.333c124.229,0,192,28.188,192,42.667s-67.771,42.667-192,42.667
				s-192-28.188-192-42.667S110.438,21.333,234.667,21.333z"/>
			<path d="M323.688,329.073C334.333,286.052,372.292,256,416,256c12.896,0,25.792,2.823,38.333,8.396
				c3.333,1.469,7.125,1.156,10.146-0.802c3.021-1.969,4.854-5.333,4.854-8.948V202.75c0-3.844-2.063-7.385-5.396-9.281
				c-3.375-1.906-7.479-1.854-10.729,0.125c-65.5,39.094-193.542,41.073-218.542,41.073s-153.042-1.979-218.542-41.073
				c-3.25-1.979-7.354-2.031-10.729-0.125C2.063,195.365,0,198.906,0,202.75v63.917c0,49.021,118.063,74.667,234.667,74.667
				c27.042,0,53.896-1.417,79.813-4.219C318.938,336.635,322.604,333.417,323.688,329.073z"/>
			<path d="M288.833,360.688c-24.813,1.719-44.583,1.979-54.167,1.979c-25,0-153.042-1.979-218.542-41.073
				c-3.25-1.979-7.354-2.021-10.729-0.125C2.063,323.365,0,326.906,0,330.75v63.917c0,49.021,118.063,74.667,234.667,74.667
				c17.563,0,35.75-0.646,54.083-1.938c5.583-0.385,9.917-5.031,9.917-10.635V384c0-3.333,0.417-6.74,1.25-10.115
				c0.813-3.313,0-6.813-2.188-9.417C295.521,361.854,291.875,360.542,288.833,360.688z"/>
			<path d="M490.667,362.667V352c0-41.167-33.5-74.667-74.667-74.667c-41.167,0-74.667,33.5-74.667,74.667v10.667
				C329.573,362.667,320,372.24,320,384v106.667c0,11.76,9.573,21.333,21.333,21.333h149.333c11.76,0,21.333-9.573,21.333-21.333
				V384C512,372.24,502.427,362.667,490.667,362.667z M426.667,444.72v13.947c0,5.896-4.771,10.667-10.667,10.667
				c-5.896,0-10.667-4.771-10.667-10.667V444.72c-6.258-3.724-10.667-10.262-10.667-18.053c0-11.76,9.573-21.333,21.333-21.333
				c11.76,0,21.333,9.573,21.333,21.333C437.333,434.458,432.924,440.996,426.667,444.72z M448,362.667h-64V352
				c0-17.646,14.354-32,32-32c17.646,0,32,14.354,32,32V362.667z"/>
		</g>
	</g>
</g>
<g>
</g>
<g>
</g>
<g>
</g>
<g>
</g>
<g>
</g>
<g>
</g>
<g>
</g>
<g>
</g>
<g>
</g>
<g>
</g>
<g>
</g>
<g>
</g>
<g>
</g>
<g>
</g>
<g>
</g>
</svg>
