<svg id="Layer_5" enable-background="new 0 0 64 64" height="512" viewBox="0 0 64 64" width="512" xmlns="http://www.w3.org/2000/svg"><g><path d="m53 4.081v12.919h2v-12.919l3.375 2.7 1.25-1.562-5.625-4.5-5.625 4.5 1.25 1.562z"/><path d="m3 60c0 .551.449 1 1 1h52c.551 0 1-.449 1-1v-31h-54zm51-7c0 1.105-.895 2-2 2h-34v2h-6v-2h-4c-1.105 0-2-.895-2-2s.895-2 2-2h4v-2h6v2h34c1.105 0 2 .895 2 2zm-22-20 9 4.5v-4.5l10 5-10 5v-4.5l-9 4.5zm-5 8h-18v-2h18zm-21-9h20v4h-20zm-1 7h2v2h-2zm0 4h22v2h-22z"/><path d="m43 18v-1h-39c-.551 0-1 .449-1 1v9h54v-4h-9c-2.757 0-5-2.243-5-5zm-33 6h-4v-4h4zm8 0h-4v-4h4zm8 0h-4v-4h4z"/><path d="m60 9h-3v2h3c.551 0 1 .449 1 1v6c0 .551-.449 1-1 1h-12c-.551 0-1-.449-1-1v-6c0-.551.449-1 1-1h3v-2h-3c-1.654 0-3 1.346-3 3v6c0 1.654 1.346 3 3 3h12c1.654 0 3-1.346 3-3v-6c0-1.654-1.346-3-3-3z"/></g></svg>