<?xml version="1.0"?>
<svg xmlns="http://www.w3.org/2000/svg" viewBox="0 0 64 64" width="512" height="512"><g id="Gauge-Manometer-Measurement-Temperature-Danger"><rect x="27" y="45" width="10" height="4"/><path d="M32,8A24,24,0,1,0,56,32,24.028,24.028,0,0,0,32,8ZM22.293,40.293,29.3,33.285A2.951,2.951,0,0,1,29,32a3,3,0,0,1,3-3,2.951,2.951,0,0,1,1.285.3l2.008-2.008,1.414,1.414L34.7,30.715A2.951,2.951,0,0,1,35,32a3,3,0,0,1-3,3,2.951,2.951,0,0,1-1.285-.3l-7.008,7.008ZM39,50a1,1,0,0,1-1,1H26a1,1,0,0,1-1-1V44a1,1,0,0,1,1-1H38a1,1,0,0,1,1,1ZM50.954,33a18.86,18.86,0,0,1-4.829,11.711l1.431,1.431-1.414,1.414-2.119-2.119a1,1,0,0,1,0-1.413,17.047,17.047,0,0,0,3.58-5.281l-1.849-.673.684-1.88,1.855.675a16.868,16.868,0,0,0-.4-10.846l-1.783.793L45.3,24.985l1.787-.795a17.087,17.087,0,0,0-7.807-7.531l-.73,1.808-1.854-.749.733-1.815a16.748,16.748,0,0,0-10.85,0l.733,1.815-1.854.749-.73-1.808a17.087,17.087,0,0,0-7.807,7.531l1.787.795-.814,1.827-1.783-.793a16.868,16.868,0,0,0-.4,10.846l1.855-.675.684,1.88-1.849.673a17.047,17.047,0,0,0,3.58,5.281,1,1,0,0,1,0,1.413l-2.119,2.119-1.414-1.414,1.431-1.431A18.86,18.86,0,0,1,13.046,33H11V31h2.051A18.892,18.892,0,0,1,17.9,19.312l-1.454-1.454,1.414-1.414L19.312,17.9A18.892,18.892,0,0,1,31,13.051V11h2v2.051A18.892,18.892,0,0,1,44.688,17.9l1.454-1.454,1.414,1.414L46.1,19.312A18.892,18.892,0,0,1,50.949,31H53v2Z"/><path d="M32,4A28,28,0,1,0,60,32,28.032,28.032,0,0,0,32,4Zm0,54A26,26,0,1,1,58,32,26.03,26.03,0,0,1,32,58Z"/></g></svg>
