<?xml version="1.0" encoding="iso-8859-1"?>
<!-- Generator: Adobe Illustrator 19.0.0, SVG Export Plug-In . SVG Version: 6.00 Build 0)  -->
<svg version="1.1" id="Capa_1" xmlns="http://www.w3.org/2000/svg" xmlns:xlink="http://www.w3.org/1999/xlink" x="0px" y="0px"
	 viewBox="0 0 368 368" style="enable-background:new 0 0 368 368;" xml:space="preserve">
<path style="fill:#CCE4FF;" d="M184,8c97.2,0,176,78.8,176,176s-78.8,176-176,176S8,281.2,8,184S86.8,8,184,8z M242.64,270.32
	C255.92,256.08,264,236.96,264,216c0-44.16-35.84-80-80-80s-80,35.84-80,80c0,20.96,8.08,40.08,21.36,54.32
	C139.92,286.16,160.8,296,184,296S228.08,286.16,242.64,270.32z"/>
<g>
	<path style="fill:#007AFF;" d="M228.424,95.16l32,16c1.144,0.568,2.368,0.84,3.568,0.84c2.936,0,5.76-1.616,7.168-4.424
		c1.976-3.952,0.376-8.76-3.576-10.736l-32-16c-3.96-1.976-8.76-0.368-10.736,3.576C222.864,88.376,224.472,93.176,228.424,95.16z"
		/>
	<path style="fill:#007AFF;" d="M104.008,112c1.2,0,2.424-0.272,3.568-0.84l32-16c3.952-1.976,5.552-6.784,3.576-10.736
		s-6.776-5.552-10.736-3.576l-32,16c-3.952,1.976-5.552,6.784-3.576,10.736C98.248,110.384,101.072,112,104.008,112z"/>
	<path style="fill:#007AFF;" d="M184,0C82.544,0,0,82.544,0,184s82.544,184,184,184s184-82.544,184-184S285.456,0,184,0z M184,352
		c-92.64,0-168-75.36-168-168S91.36,16,184,16s168,75.36,168,168S276.64,352,184,352z"/>
	<path style="fill:#007AFF;" d="M184,128c-48.52,0-88,39.48-88,88c0,22.264,8.328,43.472,23.456,59.72
		c0.008,0.008,0.008,0.008,0.008,0.016c0.008,0.008,0.008,0.008,0.016,0.016c0.008,0.008,0.016,0.016,0.024,0.024
		s0.016,0.008,0.016,0.016C136.04,293.72,159.528,304,184,304s47.96-10.28,64.472-28.208c0.008-0.008,0.016-0.008,0.016-0.008
		c0.008-0.008,0.016-0.016,0.024-0.024s0.008-0.008,0.016-0.016s0.008-0.008,0.008-0.016C263.672,259.472,272,238.264,272,216
		C272,167.48,232.52,128,184,128z M184,144c39.696,0,72,32.304,72,72c0,14.416-4.328,28.256-12.248,40
		c-13.184-19.712-35.424-32-59.752-32s-46.568,12.28-59.752,32C116.328,244.256,112,230.416,112,216
		C112,176.304,144.304,144,184,144z M184,288c-18.216,0-35.768-6.96-48.944-19.264C144.832,251.12,163.504,240,184,240
		s39.168,11.12,48.944,28.736C219.768,281.04,202.216,288,184,288z"/>
</g>
<g>
</g>
<g>
</g>
<g>
</g>
<g>
</g>
<g>
</g>
<g>
</g>
<g>
</g>
<g>
</g>
<g>
</g>
<g>
</g>
<g>
</g>
<g>
</g>
<g>
</g>
<g>
</g>
<g>
</g>
</svg>
