<?xml version="1.0" encoding="iso-8859-1"?>
<!-- Generator: Adobe Illustrator 19.0.0, SVG Export Plug-In . SVG Version: 6.00 Build 0)  -->
<svg version="1.1" id="Capa_1" xmlns="http://www.w3.org/2000/svg" xmlns:xlink="http://www.w3.org/1999/xlink" x="0px" y="0px"
	 viewBox="0 0 368 368" style="enable-background:new 0 0 368 368;" xml:space="preserve">
<path style="fill:#CCE4FF;" d="M184,8c97.2,0,176,78.8,176,176s-78.8,176-176,176S8,281.2,8,184S86.8,8,184,8z M280,152
	c0-17.68-14.32-32-32-32s-32,14.32-32,32s14.32,32,32,32S280,169.68,280,152z"/>
<g>
	<path style="fill:#007AFF;" d="M250.032,226.664C233.36,245.312,209.296,256,184,256c-25.224,0-49.304-10.696-66.048-29.344
		c-2.96-3.288-8.016-3.568-11.296-0.608c-3.288,2.952-3.56,8.008-0.608,11.296C125.824,259.368,154.24,272,184,272
		c29.84,0,58.256-12.64,77.968-34.664c2.944-3.296,2.664-8.344-0.632-11.296C258.032,223.096,252.984,223.368,250.032,226.664z"/>
	<path style="fill:#007AFF;" d="M184,0C82.544,0,0,82.544,0,184s82.544,184,184,184s184-82.544,184-184S285.456,0,184,0z M184,352
		c-92.64,0-168-75.36-168-168S91.36,16,184,16s168,75.36,168,168S276.64,352,184,352z"/>
	<path style="fill:#007AFF;" d="M248,112c-22.056,0-40,17.944-40,40s17.944,40,40,40s40-17.944,40-40S270.056,112,248,112z M248,176
		c-13.232,0-24-10.768-24-24s10.768-24,24-24s24,10.768,24,24S261.232,176,248,176z"/>
	<path style="fill:#007AFF;" d="M160,152c0-3.032-1.712-5.8-4.424-7.16l-64-32c-3.968-1.984-8.76-0.368-10.736,3.576
		c-1.976,3.952-0.376,8.76,3.576,10.736L134.112,152l-49.688,24.84c-3.952,1.976-5.552,6.784-3.576,10.736
		c1.4,2.808,4.224,4.424,7.16,4.424c1.2,0,2.424-0.272,3.568-0.84l64-32C158.288,157.8,160,155.032,160,152z"/>
</g>
<g>
</g>
<g>
</g>
<g>
</g>
<g>
</g>
<g>
</g>
<g>
</g>
<g>
</g>
<g>
</g>
<g>
</g>
<g>
</g>
<g>
</g>
<g>
</g>
<g>
</g>
<g>
</g>
<g>
</g>
</svg>
