<?xml version="1.0" encoding="iso-8859-1"?>
<!-- Generator: Adobe Illustrator 19.0.0, SVG Export Plug-In . SVG Version: 6.00 Build 0)  -->
<svg version="1.1" id="Capa_1" xmlns="http://www.w3.org/2000/svg" xmlns:xlink="http://www.w3.org/1999/xlink" x="0px" y="0px"
	 viewBox="0 0 368 368" style="enable-background:new 0 0 368 368;" xml:space="preserve">
<path style="fill:#CCE4FF;" d="M184,8c97.2,0,176,78.8,176,176s-78.8,176-176,176S8,281.2,8,184S86.8,8,184,8z M296,168
	c0-17.68-14.32-32-32-32s-32,14.32-32,32s14.32,32,32,32S296,185.68,296,168z M136,168c0-17.68-14.32-32-32-32s-32,14.32-32,32
	s14.32,32,32,32S136,185.68,136,168z"/>
<g>
	<path style="fill:#007AFF;" d="M184,0C82.544,0,0,82.544,0,184s82.544,184,184,184s184-82.544,184-184S285.456,0,184,0z M184,352
		c-92.64,0-168-75.36-168-168S91.36,16,184,16s168,75.36,168,168S276.64,352,184,352z"/>
	<path style="fill:#007AFF;" d="M264,128c-22.056,0-40,17.944-40,40s17.944,40,40,40s40-17.944,40-40S286.056,128,264,128z M264,192
		c-13.232,0-24-10.768-24-24s10.768-24,24-24s24,10.768,24,24S277.232,192,264,192z"/>
	<path style="fill:#007AFF;" d="M144,168c0-22.056-17.944-40-40-40s-40,17.944-40,40s17.944,40,40,40S144,190.056,144,168z M104,192
		c-13.232,0-24-10.768-24-24s10.768-24,24-24s24,10.768,24,24S117.232,192,104,192z"/>
	<path style="fill:#007AFF;" d="M232,240h-96c-4.416,0-8,3.584-8,8s3.584,8,8,8h96c4.416,0,8-3.584,8-8S236.416,240,232,240z"/>
</g>
<g>
</g>
<g>
</g>
<g>
</g>
<g>
</g>
<g>
</g>
<g>
</g>
<g>
</g>
<g>
</g>
<g>
</g>
<g>
</g>
<g>
</g>
<g>
</g>
<g>
</g>
<g>
</g>
<g>
</g>
</svg>
