<?xml version="1.0" encoding="iso-8859-1"?>
<!-- Generator: Adobe Illustrator 19.0.0, SVG Export Plug-In . SVG Version: 6.00 Build 0)  -->
<svg version="1.1" id="Capa_1" xmlns="http://www.w3.org/2000/svg" xmlns:xlink="http://www.w3.org/1999/xlink" x="0px" y="0px"
	 viewBox="0 0 368 368" style="enable-background:new 0 0 368 368;" xml:space="preserve">
<circle style="fill:#CCE4FF;" cx="184" cy="184" r="176"/>
<g>
	<path style="fill:#007AFF;" d="M184,0C82.536,0,0,82.544,0,184s82.536,184,184,184s184-82.544,184-184S285.464,0,184,0z M184,352
		c-92.632,0-168-75.36-168-168S91.368,16,184,16s168,75.36,168,168S276.632,352,184,352z"/>
	<path style="fill:#007AFF;" d="M146.344,189.656c1.56,1.56,3.608,2.344,5.656,2.344s4.096-0.784,5.656-2.344
		c3.128-3.128,3.128-8.184,0-11.312L131.312,152l26.344-26.344c3.128-3.128,3.128-8.184,0-11.312s-8.184-3.128-11.312,0L120,140.688
		l-26.344-26.344c-3.128-3.128-8.184-3.128-11.312,0s-3.128,8.184,0,11.312L108.688,152l-26.344,26.344
		c-3.128,3.128-3.128,8.184,0,11.312C83.904,191.216,85.952,192,88,192s4.096-0.784,5.656-2.344L120,163.312L146.344,189.656z"/>
	<path style="fill:#007AFF;" d="M285.656,114.344c-3.128-3.128-8.184-3.128-11.312,0L248,140.688l-26.344-26.344
		c-3.128-3.128-8.184-3.128-11.312,0s-3.128,8.184,0,11.312L236.688,152l-26.344,26.344c-3.128,3.128-3.128,8.184,0,11.312
		c1.56,1.56,3.608,2.344,5.656,2.344s4.096-0.784,5.656-2.344L248,163.312l26.344,26.344c1.56,1.56,3.608,2.344,5.656,2.344
		s4.096-0.784,5.656-2.344c3.128-3.128,3.128-8.184,0-11.312L259.312,152l26.344-26.344
		C288.784,122.528,288.784,117.472,285.656,114.344z"/>
	<path style="fill:#007AFF;" d="M248,240H120c-4.424,0-8,3.584-8,8s3.576,8,8,8h128c4.424,0,8-3.584,8-8S252.424,240,248,240z"/>
</g>
<g>
</g>
<g>
</g>
<g>
</g>
<g>
</g>
<g>
</g>
<g>
</g>
<g>
</g>
<g>
</g>
<g>
</g>
<g>
</g>
<g>
</g>
<g>
</g>
<g>
</g>
<g>
</g>
<g>
</g>
</svg>
