<?xml version="1.0" encoding="iso-8859-1"?>
<!-- Generator: Adobe Illustrator 19.0.0, SVG Export Plug-In . SVG Version: 6.00 Build 0)  -->
<svg version="1.1" id="Capa_1" xmlns="http://www.w3.org/2000/svg" xmlns:xlink="http://www.w3.org/1999/xlink" x="0px" y="0px"
	 viewBox="0 0 368 368" style="enable-background:new 0 0 368 368;" xml:space="preserve">
<circle style="fill:#CCE4FF;" cx="184" cy="184" r="176"/>
<g>
	<path style="fill:#007AFF;" d="M250.032,226.664C233.36,245.312,209.296,256,184,256c-25.224,0-49.304-10.696-66.048-29.344
		c-2.952-3.288-8.008-3.568-11.296-0.608c-3.288,2.952-3.56,8.008-0.608,11.296C125.824,259.368,154.24,272,184,272
		c29.84,0,58.256-12.64,77.968-34.664c2.944-3.296,2.664-8.344-0.632-11.296C258.032,223.096,252.976,223.368,250.032,226.664z"/>
	<path style="fill:#007AFF;" d="M184,0C82.544,0,0,82.544,0,184s82.544,184,184,184s184-82.544,184-184S285.456,0,184,0z M184,352
		c-92.64,0-168-75.36-168-168S91.36,16,184,16s168,75.36,168,168S276.64,352,184,352z"/>
	<path style="fill:#007AFF;" d="M280,144c-4.416,0-8,3.584-8,8c0,13.232-10.768,24-24,24s-24-10.768-24-24c0-4.416-3.584-8-8-8
		s-8,3.584-8,8c0,22.056,17.944,40,40,40s40-17.944,40-40C288,147.584,284.416,144,280,144z"/>
	<path style="fill:#007AFF;" d="M160,152c0-4.416-3.584-8-8-8s-8,3.584-8,8c0,13.232-10.768,24-24,24s-24-10.768-24-24
		c0-4.416-3.584-8-8-8s-8,3.584-8,8c0,22.056,17.944,40,40,40S160,174.056,160,152z"/>
	<path style="fill:#007AFF;" d="M212.424,95.16l32,16c1.144,0.568,2.368,0.84,3.568,0.84c2.936,0,5.76-1.616,7.168-4.424
		c1.976-3.952,0.376-8.76-3.576-10.736l-32-16c-3.968-1.984-8.76-0.368-10.736,3.576C206.864,88.376,208.472,93.176,212.424,95.16z"
		/>
	<path style="fill:#007AFF;" d="M120.008,112c1.2,0,2.424-0.272,3.568-0.84l32-16c3.952-1.976,5.552-6.784,3.576-10.736
		s-6.776-5.56-10.736-3.576l-32,16c-3.952,1.976-5.552,6.784-3.576,10.736C114.248,110.384,117.072,112,120.008,112z"/>
</g>
<g>
</g>
<g>
</g>
<g>
</g>
<g>
</g>
<g>
</g>
<g>
</g>
<g>
</g>
<g>
</g>
<g>
</g>
<g>
</g>
<g>
</g>
<g>
</g>
<g>
</g>
<g>
</g>
<g>
</g>
</svg>
