<?xml version="1.0" encoding="iso-8859-1"?>
<!-- Generator: Adobe Illustrator 19.0.0, SVG Export Plug-In . SVG Version: 6.00 Build 0)  -->
<svg version="1.1" id="Capa_1" xmlns="http://www.w3.org/2000/svg" xmlns:xlink="http://www.w3.org/1999/xlink" x="0px" y="0px"
	 viewBox="0 0 368 368" style="enable-background:new 0 0 368 368;" xml:space="preserve">
<path style="fill:#CCE4FF;" d="M184,8c97.2,0,176,78.8,176,176s-78.8,176-176,176S8,281.2,8,184S86.8,8,184,8z M296,184H72
	c0,61.84,50.16,112,112,112S296,245.84,296,184z"/>
<g>
	<path style="fill:#007AFF;" d="M184,0C82.536,0,0,82.544,0,184s82.536,184,184,184s184-82.544,184-184S285.464,0,184,0z M184,352
		c-92.632,0-168-75.36-168-168S91.368,16,184,16s168,75.36,168,168S276.632,352,184,352z"/>
	<path style="fill:#007AFF;" d="M296,176H72c-4.424,0-8,3.584-8,8c0,66.168,53.832,120,120,120s120-53.832,120-120
		C304,179.584,300.424,176,296,176z M184,288c-54.656,0-99.592-42.376-103.696-96h207.392C283.592,245.624,238.656,288,184,288z"/>
	<path style="fill:#007AFF;" d="M216,144h48c4.424,0,8-3.584,8-8s-3.576-8-8-8h-33.056l23.712-35.56
		c2.456-3.672,1.464-8.648-2.216-11.096c-3.696-2.456-8.656-1.456-11.096,2.216l-32,48c-1.632,2.456-1.792,5.608-0.4,8.208
		S213.048,144,216,144z"/>
	<path style="fill:#007AFF;" d="M104,144h48c2.952,0,5.664-1.624,7.056-4.224s1.232-5.76-0.4-8.208l-32-48
		c-2.448-3.672-7.416-4.672-11.096-2.216c-3.68,2.448-4.672,7.416-2.216,11.096L137.056,128H104c-4.424,0-8,3.584-8,8
		S99.576,144,104,144z"/>
</g>
<g>
</g>
<g>
</g>
<g>
</g>
<g>
</g>
<g>
</g>
<g>
</g>
<g>
</g>
<g>
</g>
<g>
</g>
<g>
</g>
<g>
</g>
<g>
</g>
<g>
</g>
<g>
</g>
<g>
</g>
</svg>
