<?xml version="1.0" encoding="iso-8859-1"?>
<!-- Generator: Adobe Illustrator 19.0.0, SVG Export Plug-In . SVG Version: 6.00 Build 0)  -->
<svg version="1.1" id="Capa_1" xmlns="http://www.w3.org/2000/svg" xmlns:xlink="http://www.w3.org/1999/xlink" x="0px" y="0px"
	 viewBox="0 0 368 368" style="enable-background:new 0 0 368 368;" xml:space="preserve">
<g>
	<path style="fill:#CCE4FF;" d="M184,8c97.2,0,176,78.8,176,176s-78.8,176-176,176S8,281.2,8,184S86.8,8,184,8z M264,120
		c0-8.8-7.2-16-16-16s-16,7.2-16,16s7.2,16,16,16S264,128.8,264,120z M136,120c0-8.8-7.2-16-16-16s-16,7.2-16,16s7.2,16,16,16
		S136,128.8,136,120z"/>
	<circle style="fill:#CCE4FF;" cx="248" cy="120" r="16"/>
	<circle style="fill:#CCE4FF;" cx="120" cy="120" r="16"/>
</g>
<g>
	<path style="fill:#007AFF;" d="M120,144c13.232,0,24-10.768,24-24s-10.768-24-24-24s-24,10.768-24,24S106.768,144,120,144z
		 M120,112c4.416,0,8,3.592,8,8s-3.584,8-8,8s-8-3.592-8-8S115.584,112,120,112z"/>
	<path style="fill:#007AFF;" d="M248,96c-13.232,0-24,10.768-24,24s10.768,24,24,24s24-10.768,24-24S261.232,96,248,96z M248,128
		c-4.416,0-8-3.592-8-8s3.584-8,8-8s8,3.592,8,8S252.416,128,248,128z"/>
	<path style="fill:#007AFF;" d="M184,0C82.536,0,0,82.544,0,184s82.536,184,184,184s184-82.544,184-184S285.464,0,184,0z M184,352
		c-92.632,0-168-75.36-168-168S91.368,16,184,16s168,75.36,168,168S276.632,352,184,352z"/>
	<path style="fill:#007AFF;" d="M264,192c4.424,0,8-3.584,8-8s-3.576-8-8-8c-17.296,0-31.92,11.104-37.488,26.504
		C217.632,197.512,203.576,192,184,192s-33.632,5.512-42.512,10.504C135.92,187.104,121.296,176,104,176c-4.424,0-8,3.584-8,8
		c0,4.416,3.576,8,8,8c13.232,0,24,10.768,24,24s-10.768,24-24,24c-4.424,0-8,3.584-8,8s3.576,8,8,8
		c20.664,0,37.52-15.808,39.592-35.928C148.216,216.472,161.456,208,184,208c22.584,0,35.832,8.504,40.408,12.064
		C226.48,240.192,243.336,256,264,256c4.424,0,8-3.584,8-8s-3.576-8-8-8c-13.232,0-24-10.768-24-24S250.768,192,264,192z"/>
</g>
<g>
</g>
<g>
</g>
<g>
</g>
<g>
</g>
<g>
</g>
<g>
</g>
<g>
</g>
<g>
</g>
<g>
</g>
<g>
</g>
<g>
</g>
<g>
</g>
<g>
</g>
<g>
</g>
<g>
</g>
</svg>
