<?xml version="1.0" encoding="iso-8859-1"?>
<!-- Generator: Adobe Illustrator 19.0.0, SVG Export Plug-In . SVG Version: 6.00 Build 0)  -->
<svg version="1.1" id="Capa_1" xmlns="http://www.w3.org/2000/svg" xmlns:xlink="http://www.w3.org/1999/xlink" x="0px" y="0px"
	 viewBox="0 0 368 368" style="enable-background:new 0 0 368 368;" xml:space="preserve">
<g>
	<path style="fill:#CCE4FF;" d="M184,8c97.2,0,176,78.8,176,176s-78.8,176-176,176S8,281.2,8,184S86.8,8,184,8z M264,216H104
		c0,44.16,35.84,80,80,80S264,260.16,264,216z M264,136c0-8.8-7.2-16-16-16s-16,7.2-16,16s7.2,16,16,16S264,144.8,264,136z M136,136
		c0-8.8-7.2-16-16-16s-16,7.2-16,16s7.2,16,16,16S136,144.8,136,136z"/>
	<circle style="fill:#CCE4FF;" cx="248" cy="136" r="16"/>
	<circle style="fill:#CCE4FF;" cx="120" cy="136" r="16"/>
</g>
<g>
	<path style="fill:#007AFF;" d="M248,160c13.232,0,24-10.768,24-24s-10.768-24-24-24s-24,10.768-24,24S234.768,160,248,160z
		 M248,128c4.416,0,8,3.592,8,8s-3.584,8-8,8s-8-3.592-8-8S243.584,128,248,128z"/>
	<path style="fill:#007AFF;" d="M120,160c13.232,0,24-10.768,24-24s-10.768-24-24-24s-24,10.768-24,24S106.768,160,120,160z
		 M120,128c4.416,0,8,3.592,8,8s-3.584,8-8,8s-8-3.592-8-8S115.584,128,120,128z"/>
	<path style="fill:#007AFF;" d="M184,368c101.464,0,184-82.544,184-184S285.464,0,184,0S0,82.544,0,184S82.536,368,184,368z M184,16
		c92.632,0,168,75.36,168,168s-75.368,168-168,168S16,276.64,16,184S91.368,16,184,16z"/>
	<path style="fill:#007AFF;" d="M184,304c48.52,0,88-39.48,88-88c0-4.416-3.576-8-8-8H104c-4.424,0-8,3.584-8,8
		C96,264.52,135.48,304,184,304z M255.552,224C251.56,259.952,221,288,184,288s-67.56-28.048-71.552-64H255.552z"/>
</g>
<g>
</g>
<g>
</g>
<g>
</g>
<g>
</g>
<g>
</g>
<g>
</g>
<g>
</g>
<g>
</g>
<g>
</g>
<g>
</g>
<g>
</g>
<g>
</g>
<g>
</g>
<g>
</g>
<g>
</g>
</svg>
