<?xml version="1.0" encoding="iso-8859-1"?>
<!-- Generator: Adobe Illustrator 19.0.0, SVG Export Plug-In . SVG Version: 6.00 Build 0)  -->
<svg version="1.1" id="Capa_1" xmlns="http://www.w3.org/2000/svg" xmlns:xlink="http://www.w3.org/1999/xlink" x="0px" y="0px"
	 viewBox="0 0 368 368" style="enable-background:new 0 0 368 368;" xml:space="preserve">
<g>
	<path style="fill:#CCE4FF;" d="M248,168c8.8,0,16-7.2,16-16s-7.2-16-16-16s-16,7.2-16,16S239.2,168,248,168z M184,8
		c97.2,0,176,78.8,176,176s-78.8,176-176,176S8,281.2,8,184S86.8,8,184,8z M136,152c0-8.8-7.2-16-16-16s-16,7.2-16,16s7.2,16,16,16
		S136,160.8,136,152z"/>
	<circle style="fill:#CCE4FF;" cx="248" cy="152" r="16"/>
	<circle style="fill:#CCE4FF;" cx="120" cy="152" r="16"/>
</g>
<g>
	<path style="fill:#007AFF;" d="M184,0C82.544,0,0,82.544,0,184s82.544,184,184,184c101.464,0,184-82.544,184-184S285.464,0,184,0z
		 M184,352c-92.64,0-168-75.36-168-168S91.36,16,184,16c92.632,0,168,75.36,168,168S276.632,352,184,352z"/>
	<path style="fill:#007AFF;" d="M144,152c0-13.232-10.768-24-24-24s-24,10.768-24,24s10.768,24,24,24S144,165.232,144,152z M112,152
		c0-4.408,3.592-8,8-8s8,3.592,8,8s-3.592,8-8,8S112,156.408,112,152z"/>
	<path style="fill:#007AFF;" d="M248,128c-13.232,0-24,10.768-24,24c0,10.416,6.712,19.216,16,22.528V200c0,4.416,3.576,8,8,8
		s8-3.584,8-8v-25.472c9.288-3.312,16-12.112,16-22.528C272,138.768,261.232,128,248,128z M248,160c-4.416,0-8-3.592-8-8
		s3.584-8,8-8s8,3.592,8,8S252.416,160,248,160z"/>
	<path style="fill:#007AFF;" d="M184,224c-29.76,0-58.176,12.632-77.952,34.656c-2.952,3.288-2.68,8.344,0.608,11.296
		c3.288,2.96,8.352,2.68,11.296-0.608C134.696,250.696,158.776,240,184,240c25.296,0,49.368,10.688,66.04,29.336
		c1.576,1.768,3.768,2.664,5.96,2.664c1.896,0,3.808-0.672,5.336-2.032c3.288-2.952,3.568-8,0.624-11.296
		C242.256,236.64,213.84,224,184,224z"/>
	<path style="fill:#007AFF;" d="M228.424,79.16l32,16c1.144,0.568,2.368,0.84,3.568,0.84c2.936,0,5.76-1.616,7.168-4.424
		c1.976-3.952,0.376-8.76-3.576-10.736l-32-16c-3.944-1.976-8.752-0.376-10.736,3.576C222.864,72.376,224.472,77.176,228.424,79.16z
		"/>
	<path style="fill:#007AFF;" d="M104.008,96c1.2,0,2.424-0.272,3.568-0.84l32-16c3.952-1.976,5.552-6.784,3.576-10.736
		s-6.768-5.56-10.736-3.576l-32,16c-3.952,1.976-5.552,6.784-3.576,10.736C98.248,94.384,101.072,96,104.008,96z"/>
</g>
<g>
</g>
<g>
</g>
<g>
</g>
<g>
</g>
<g>
</g>
<g>
</g>
<g>
</g>
<g>
</g>
<g>
</g>
<g>
</g>
<g>
</g>
<g>
</g>
<g>
</g>
<g>
</g>
<g>
</g>
</svg>
