<?xml version="1.0" encoding="iso-8859-1"?>
<!-- Generator: Adobe Illustrator 19.0.0, SVG Export Plug-In . SVG Version: 6.00 Build 0)  -->
<svg version="1.1" id="Capa_1" xmlns="http://www.w3.org/2000/svg" xmlns:xlink="http://www.w3.org/1999/xlink" x="0px" y="0px"
	 viewBox="0 0 368 368" style="enable-background:new 0 0 368 368;" xml:space="preserve">
<g>
	<path style="fill:#CCE4FF;" d="M328,216c17.68,0,32-14.32,32-32c0,97.2-78.8,176-176,176S8,281.2,8,184c0,17.68,14.32,32,32,32h80
		c17.68,0,32-14.32,32-32v-24c0-4.4,3.6-8,8-8h48c4.4,0,8,3.6,8,8v24c0,17.68,14.32,32,32,32H328z"/>
	<path style="fill:#CCE4FF;" d="M331.52,88H36.48C67.84,39.84,122.24,8,184,8S300.16,39.84,331.52,88z"/>
</g>
<g>
	<path style="fill:#007AFF;" d="M250.04,258.664C233.368,277.312,209.296,288,184,288c-25.224,0-49.304-10.696-66.048-29.344
		c-2.96-3.296-8.008-3.568-11.296-0.608c-3.288,2.952-3.56,8.008-0.608,11.296C125.824,291.368,154.24,304,184,304
		c29.84,0,58.256-12.64,77.96-34.664c2.944-3.296,2.664-8.344-0.624-11.296C258.032,255.096,252.984,255.368,250.04,258.664z"/>
	<path style="fill:#007AFF;" d="M344,80h-8.304C301.312,29.856,244.976,0,184,0C123.016,0,66.68,29.856,32.304,80H24
		C10.768,80,0,90.768,0,104v80c0,101.456,82.544,184,184,184c101.464,0,184-82.544,184-184v-80C368,90.768,357.232,80,344,80z
		 M184,16c51.904,0,100.112,23.704,131.856,64H52.152C83.88,39.704,132.088,16,184,16z M16,104c0-4.408,3.592-8,8-8h320
		c4.416,0,8,3.592,8,8v80c0,13.232-10.768,24-24,24h-80c-13.232,0-24-10.768-24-24v-24c0-8.824-7.176-16-16-16h-48
		c-8.824,0-16,7.176-16,16v24c0,13.232-10.768,24-24,24H40c-13.232,0-24-10.768-24-24V104z M184,352
		c-80.928,0-148.656-57.528-164.488-133.832C25.528,221.792,32.48,224,40,224h80c22.056,0,40-17.944,40-40v-24h48v24
		c0,22.056,17.944,40,40,40h80c7.52,0,14.472-2.208,20.488-5.832C332.656,294.472,264.928,352,184,352z"/>
</g>
<g>
</g>
<g>
</g>
<g>
</g>
<g>
</g>
<g>
</g>
<g>
</g>
<g>
</g>
<g>
</g>
<g>
</g>
<g>
</g>
<g>
</g>
<g>
</g>
<g>
</g>
<g>
</g>
<g>
</g>
</svg>
