<?xml version="1.0" encoding="iso-8859-1"?>
<!-- Generator: Adobe Illustrator 19.0.0, SVG Export Plug-In . SVG Version: 6.00 Build 0)  -->
<svg version="1.1" id="Capa_1" xmlns="http://www.w3.org/2000/svg" xmlns:xlink="http://www.w3.org/1999/xlink" x="0px" y="0px"
	 viewBox="0 0 368 368" style="enable-background:new 0 0 368 368;" xml:space="preserve">
<path style="fill:#CCE4FF;" d="M184,8c97.2,0,176,78.8,176,176s-78.8,176-176,176S8,281.2,8,184S86.8,8,184,8z M280,232
	c0-17.68-14.32-32-32-32H120c-17.68,0-32,14.32-32,32s14.32,32,32,32h128C265.68,264,280,249.68,280,232z"/>
<g>
	<path style="fill:#007AFF;" d="M184,0C82.536,0,0,82.544,0,184s82.536,184,184,184s184-82.544,184-184S285.464,0,184,0z M184,352
		c-92.632,0-168-75.36-168-168S91.368,16,184,16s168,75.36,168,168S276.632,352,184,352z"/>
	<path style="fill:#007AFF;" d="M280,112c-4.424,0-8,3.584-8,8c0,13.232-10.768,24-24,24s-24-10.768-24-24c0-4.416-3.576-8-8-8
		s-8,3.584-8,8c0,22.056,17.944,40,40,40s40-17.944,40-40C288,115.584,284.424,112,280,112z"/>
	<path style="fill:#007AFF;" d="M120,160c22.056,0,40-17.944,40-40c0-4.416-3.576-8-8-8s-8,3.584-8,8c0,13.232-10.768,24-24,24
		s-24-10.768-24-24c0-4.416-3.576-8-8-8s-8,3.584-8,8C80,142.056,97.944,160,120,160z"/>
	<path style="fill:#007AFF;" d="M248,192H120c-22.056,0-40,17.944-40,40s17.944,40,40,40h128c22.056,0,40-17.944,40-40
		S270.056,192,248,192z M248,256H120c-13.232,0-24-10.768-24-24s10.768-24,24-24h128c13.232,0,24,10.768,24,24S261.232,256,248,256z
		"/>
</g>
<g>
</g>
<g>
</g>
<g>
</g>
<g>
</g>
<g>
</g>
<g>
</g>
<g>
</g>
<g>
</g>
<g>
</g>
<g>
</g>
<g>
</g>
<g>
</g>
<g>
</g>
<g>
</g>
<g>
</g>
</svg>
