<?xml version="1.0" encoding="iso-8859-1"?>
<!-- Generator: Adobe Illustrator 19.0.0, SVG Export Plug-In . SVG Version: 6.00 Build 0)  -->
<svg version="1.1" id="Capa_1" xmlns="http://www.w3.org/2000/svg" xmlns:xlink="http://www.w3.org/1999/xlink" x="0px" y="0px"
	 viewBox="0 0 368 368" style="enable-background:new 0 0 368 368;" xml:space="preserve">
<g>
	<path style="fill:#CCE4FF;" d="M184,8c97.2,0,176,78.8,176,176s-78.8,176-176,176S8,281.2,8,184S86.8,8,184,8z M264,168
		c0-8.8-7.2-16-16-16s-16,7.2-16,16s7.2,16,16,16S264,176.8,264,168z M136,168c0-8.8-7.2-16-16-16s-16,7.2-16,16s7.2,16,16,16
		S136,176.8,136,168z"/>
	<circle style="fill:#CCE4FF;" cx="248" cy="168" r="16"/>
	<circle style="fill:#CCE4FF;" cx="120" cy="168" r="16"/>
</g>
<g>
	<path style="fill:#007AFF;" d="M184,0C82.544,0,0,82.544,0,184s82.544,184,184,184c101.464,0,184-82.544,184-184S285.464,0,184,0z
		 M184,352c-92.64,0-168-75.36-168-168S91.36,16,184,16c92.632,0,168,75.36,168,168S276.632,352,184,352z"/>
	<path style="fill:#007AFF;" d="M144,168c0-13.232-10.768-24-24-24s-24,10.768-24,24s10.768,24,24,24S144,181.232,144,168z M112,168
		c0-4.408,3.592-8,8-8s8,3.592,8,8s-3.592,8-8,8S112,172.408,112,168z"/>
	<path style="fill:#007AFF;" d="M248,144c-13.232,0-24,10.768-24,24s10.768,24,24,24s24-10.768,24-24S261.232,144,248,144z M248,176
		c-4.416,0-8-3.592-8-8s3.584-8,8-8s8,3.592,8,8S252.416,176,248,176z"/>
	<path style="fill:#007AFF;" d="M216.008,112c1.2,0,2.424-0.272,3.568-0.84l32-16c3.952-1.976,5.552-6.784,3.576-10.736
		c-1.984-3.952-6.792-5.56-10.736-3.576l-32,16c-3.952,1.976-5.552,6.784-3.576,10.736C210.248,110.384,213.072,112,216.008,112z"/>
	<path style="fill:#007AFF;" d="M116.424,95.16l32,16c1.144,0.568,2.368,0.84,3.568,0.84c2.936,0,5.76-1.616,7.168-4.424
		c1.976-3.952,0.376-8.76-3.576-10.736l-32-16c-3.968-1.984-8.76-0.368-10.736,3.576C110.864,88.376,112.472,93.176,116.424,95.16z"
		/>
	<path style="fill:#007AFF;" d="M184,224c-29.84,0-58.256,12.64-77.968,34.664c-2.944,3.296-2.664,8.344,0.632,11.296
		c1.528,1.368,3.432,2.04,5.336,2.04c2.2,0,4.384-0.896,5.968-2.664C134.64,250.688,158.704,240,184,240
		c25.224,0,49.304,10.696,66.048,29.344c2.952,3.296,8.016,3.552,11.296,0.608c3.288-2.952,3.56-8.008,0.608-11.296
		C242.168,236.632,213.768,224,184,224z"/>
</g>
<g>
</g>
<g>
</g>
<g>
</g>
<g>
</g>
<g>
</g>
<g>
</g>
<g>
</g>
<g>
</g>
<g>
</g>
<g>
</g>
<g>
</g>
<g>
</g>
<g>
</g>
<g>
</g>
<g>
</g>
</svg>
