<?xml version="1.0" encoding="iso-8859-1"?>
<!-- Generator: Adobe Illustrator 19.0.0, SVG Export Plug-In . SVG Version: 6.00 Build 0)  -->
<svg version="1.1" id="Capa_1" xmlns="http://www.w3.org/2000/svg" xmlns:xlink="http://www.w3.org/1999/xlink" x="0px" y="0px"
	 viewBox="0 0 368 368" style="enable-background:new 0 0 368 368;" xml:space="preserve">
<path style="fill:#CCE4FF;" d="M184,8c97.2,0,176,78.8,176,176s-78.8,176-176,176S8,281.2,8,184S86.8,8,184,8z M296,184H72
	c0,39.2,20.16,73.68,50.64,93.68C140.24,289.28,161.36,296,184,296s43.76-6.72,61.36-18.32C275.84,257.68,296,223.2,296,184z"/>
<g>
	<path style="fill:#007AFF;" d="M184,0C82.536,0,0,82.544,0,184s82.536,184,184,184s184-82.544,184-184S285.464,0,184,0z M184,352
		c-92.632,0-168-75.36-168-168S91.368,16,184,16s168,75.36,168,168S276.632,352,184,352z"/>
	<path style="fill:#007AFF;" d="M296,176H72c-4.424,0-8,3.584-8,8c0,40.544,20.272,78.056,54.224,100.344
		c0.008,0,0.008,0.008,0.016,0.016C137.736,297.208,160.472,304,184,304s46.264-6.792,65.768-19.64c0.008,0,0.008-0.008,0.016-0.016
		C283.728,262.056,304,224.544,304,184C304,179.584,300.424,176,296,176z M132.36,274.28C141.048,253.832,161.488,240,184,240
		s42.952,13.832,51.64,34.28C204.376,292.272,163.624,292.272,132.36,274.28z M248.992,265.048C237.16,240.432,211.824,224,184,224
		s-53.16,16.432-64.992,41.048C96.528,247.04,82.496,220.736,80.304,192h207.392C285.504,220.736,271.472,247.032,248.992,265.048z"
		/>
	<path style="fill:#007AFF;" d="M96,112h16v24c0,4.416,3.576,8,8,8s8-3.584,8-8v-24h16c4.424,0,8-3.584,8-8s-3.576-8-8-8h-16V72
		c0-4.416-3.576-8-8-8s-8,3.584-8,8v24H96c-4.424,0-8,3.584-8,8S91.576,112,96,112z"/>
	<path style="fill:#007AFF;" d="M224,112h16v24c0,4.416,3.576,8,8,8s8-3.584,8-8v-24h16c4.424,0,8-3.584,8-8s-3.576-8-8-8h-16V72
		c0-4.416-3.576-8-8-8s-8,3.584-8,8v24h-16c-4.424,0-8,3.584-8,8S219.576,112,224,112z"/>
</g>
<g>
</g>
<g>
</g>
<g>
</g>
<g>
</g>
<g>
</g>
<g>
</g>
<g>
</g>
<g>
</g>
<g>
</g>
<g>
</g>
<g>
</g>
<g>
</g>
<g>
</g>
<g>
</g>
<g>
</g>
</svg>
